<?xml version="1.0" encoding="utf-8"?>
<svg xmlns="http://www.w3.org/2000/svg" viewBox="0 0 80 80" width="480" height="480">
  <path d="M2 22C0.9069372 22 0 22.906937 0 24L0 52C0 53.093063 0.9069372 54 2 54L2.109375 54L2.015625 59.96875C1.9978466 61.072986 2.9116041 62 4.015625 62L6.0800781 62C6.5692515 65.38246 9.4861703 68 13 68C16.51383 68 19.430749 65.38246 19.919922 62L25.080078 62C25.569251 65.38246 28.48617 68 32 68C35.51383 68 38.430749 65.38246 38.919922 62L54 62L57.080078 62C57.569251 65.38246 60.48617 68 64 68C67.51383 68 70.430749 65.38246 70.919922 62L78 62C79.093063 62 80 61.093063 80 60L80 58C80 57.294462 79.561873 56.774574 79 56.417969L79 46 A 1.0001 1.0001 0 0 0 78.935547 45.648438L74.154297 32.892578 A 1.0001 1.0001 0 0 0 74.152344 32.892578C73.275088 30.554312 71.032784 29 68.535156 29L55 29L55 24C55 22.906937 54.093063 22 53 22L50.673828 22C49.939886 22 49.257873 22.405216 48.910156 23.054688L48.402344 24L6.6191406 24L6.171875 23.105469C5.833744 22.431196 5.1382417 22 4.3828125 22L2 22 z M 2 24L4.3828125 24L4.3828125 24.001953L4.8300781 24.894531C5.1677351 25.569365 5.8627102 26 6.6171875 26L48.402344 26C49.136286 26 49.815886 25.595597 50.164062 24.947266L50.673828 24L53 24L53 30L53 51.980469 A 1.0001 1.0001 0 0 0 52.990234 51.988281C52.977772 51.998267 52.978199 51.998373 52.976562 52L50.619141 52L50.171875 51.107422L50.171875 51.105469C50.087109 50.936436 49.978513 50.783954 49.853516 50.648438C49.797314 50.587336 49.727051 50.54365 49.664062 50.490234C49.448165 50.307149 49.206909 50.156951 48.933594 50.078125C48.756875 50.027165 48.57167 50 48.382812 50L6.6171875 50C6.0506156 50 5.5180671 50.241863 5.1445312 50.648438C5.0199747 50.783682 4.9126578 50.936901 4.828125 51.105469C4.8278815 51.105956 4.8283682 51.106934 4.828125 51.107422L4.3828125 51.998047L4.3808594 52L3.125 52L2 52L2 24 z M 9 29C8.449 29 8 29.45 8 30C8 30.55 8.439 31 9 31C9.55 31 10 30.55 10 30C10 29.45 9.55 29 9 29 z M 18 29C17.439 29 17 29.45 17 30C17 30.55 17.439 31 18 31C18.55 31 19 30.55 19 30C19 29.45 18.55 29 18 29 z M 27 29C26.439 29 26 29.45 26 30C26 30.55 26.439 31 27 31C27.55 31 28 30.55 28 30C28 29.45 27.55 29 27 29 z M 36 29C35.439 29 35 29.45 35 30C35 30.55 35.439 31 36 31C36.55 31 37 30.55 37 30C37 29.45 36.55 29 36 29 z M 45 29C44.449 29 44 29.45 44 30C44 30.55 44.439 31 45 31C45.55 31 46 30.55 46 30C46 29.45 45.55 29 45 29 z M 55 31L65 31L65 42C65 43.64497 66.35503 45 68 45L71 45C71 46.093063 71.906937 47 73 47L77 47L77 49L75 49C73.35503 49 72 50.35503 72 52C72 53.64497 73.35503 55 75 55L77 55L77 57 A 1.0001 1.0001 0 0 0 78 58L78 60L70.919922 60C70.521665 57.246197 68.515404 55.005 65.884766 54.265625C65.884766 54.265625 65.882812 54.265625 65.882812 54.265625C65.695424 54.213012 65.505794 54.165881 65.3125 54.128906C65.205639 54.107875 65.097012 54.09405 64.988281 54.078125C64.884988 54.063367 64.782402 54.045319 64.677734 54.035156C64.455279 54.013122 64.22897 54 64 54C63.77103 54 63.544721 54.013122 63.322266 54.035156C63.217598 54.045319 63.115012 54.063367 63.011719 54.078125C62.902988 54.09405 62.794361 54.107875 62.6875 54.128906C62.49624 54.165491 62.308528 54.211772 62.123047 54.263672C62.121089 54.264237 62.119144 54.265058 62.117188 54.265625C62.117188 54.265625 62.115234 54.265625 62.115234 54.265625C59.484596 55.005 57.478335 57.246197 57.080078 60L55 60L55 53L55 52L55 31 z M 67 31L68.535156 31C70.205529 31 71.694549 32.031969 72.28125 33.595703L76.556641 45L73 45C73 43.906937 72.093063 43 71 43L68 43C67.43497 43 67 42.56503 67 42L67 31 z M 9 33C8.449 33 8 33.45 8 34C8 34.55 8.439 35 9 35C9.55 35 10 34.55 10 34C10 33.45 9.55 33 9 33 z M 18 33C17.439 33 17 33.45 17 34C17 34.55 17.439 35 18 35C18.55 35 19 34.55 19 34C19 33.45 18.55 33 18 33 z M 27 33C26.439 33 26 33.45 26 34C26 34.55 26.439 35 27 35C27.55 35 28 34.55 28 34C28 33.45 27.55 33 27 33 z M 36 33C35.439 33 35 33.45 35 34C35 34.55 35.439 35 36 35C36.55 35 37 34.55 37 34C37 33.45 36.55 33 36 33 z M 45 33C44.449 33 44 33.45 44 34C44 34.55 44.439 35 45 35C45.55 35 46 34.55 46 34C46 33.45 45.55 33 45 33 z M 59 33C57.906937 33 57 33.906937 57 35L57 43C57 44.093063 57.906937 45 59 45L61 45C62.093063 45 63 44.093063 63 43L63 35C63 33.906937 62.093063 33 61 33L59 33 z M 59 35L61 35L61 43L59 43L59 35 z M 9 37C8.449 37 8 37.45 8 38C8 38.55 8.439 39 9 39C9.55 39 10 38.55 10 38C10 37.45 9.55 37 9 37 z M 18 37C17.439 37 17 37.45 17 38C17 38.55 17.439 39 18 39C18.55 39 19 38.55 19 38C19 37.45 18.55 37 18 37 z M 27 37C26.439 37 26 37.45 26 38C26 38.55 26.439 39 27 39C27.55 39 28 38.55 28 38C28 37.45 27.55 37 27 37 z M 36 37C35.439 37 35 37.45 35 38C35 38.55 35.439 39 36 39C36.55 39 37 38.55 37 38C37 37.45 36.55 37 36 37 z M 45 37C44.449 37 44 37.45 44 38C44 38.55 44.439 39 45 39C45.55 39 46 38.55 46 38C46 37.45 45.55 37 45 37 z M 9 41C8.449 41 8 41.45 8 42C8 42.55 8.439 43 9 43C9.55 43 10 42.55 10 42C10 41.45 9.55 41 9 41 z M 18 41C17.439 41 17 41.45 17 42C17 42.55 17.439 43 18 43C18.55 43 19 42.55 19 42C19 41.45 18.55 41 18 41 z M 27 41C26.439 41 26 41.45 26 42C26 42.55 26.439 43 27 43C27.55 43 28 42.55 28 42C28 41.45 27.55 41 27 41 z M 36 41C35.439 41 35 41.45 35 42C35 42.55 35.439 43 36 43C36.55 43 37 42.55 37 42C37 41.45 36.55 41 36 41 z M 45 41C44.449 41 44 41.45 44 42C44 42.55 44.439 43 45 43C45.55 43 46 42.55 46 42C46 41.45 45.55 41 45 41 z M 9 45C8.449 45 8 45.45 8 46C8 46.55 8.439 47 9 47C9.55 47 10 46.55 10 46C10 45.45 9.55 45 9 45 z M 18 45C17.439 45 17 45.45 17 46C17 46.55 17.439 47 18 47C18.55 47 19 46.55 19 46C19 45.45 18.55 45 18 45 z M 27 45C26.439 45 26 45.45 26 46C26 46.55 26.439 47 27 47C27.55 47 28 46.55 28 46C28 45.45 27.55 45 27 45 z M 36 45C35.439 45 35 45.45 35 46C35 46.55 35.439 47 36 47C36.55 47 37 46.55 37 46C37 45.45 36.55 45 36 45 z M 45 45C44.449 45 44 45.45 44 46C44 46.55 44.439 47 45 47C45.55 47 46 46.55 46 46C46 45.45 45.55 45 45 45 z M 75 51L77 51L77 53L75 53C74.43497 53 74 52.56503 74 52C74 51.43497 74.43497 51 75 51 z M 6.6191406 52L48.380859 52L48.382812 52.001953L48.828125 52.894531C48.912658 53.063099 49.019975 53.216318 49.144531 53.351562C49.269043 53.487081 49.411061 53.603066 49.566406 53.699219C49.876977 53.891302 50.239473 54 50.617188 54L53 54L53 60L38.919922 60C38.521665 57.246197 36.515404 55.005 33.884766 54.265625C33.884766 54.265625 33.882812 54.265625 33.882812 54.265625C33.695424 54.213012 33.505794 54.165881 33.3125 54.128906C33.205639 54.107875 33.097012 54.09405 32.988281 54.078125C32.884988 54.063367 32.782402 54.045319 32.677734 54.035156C32.455279 54.013122 32.22897 54 32 54C31.77103 54 31.544721 54.013122 31.322266 54.035156C31.217598 54.045319 31.115012 54.063367 31.011719 54.078125C30.902988 54.09405 30.794361 54.107875 30.6875 54.128906C30.49624 54.165491 30.308528 54.211772 30.123047 54.263672C30.121089 54.264237 30.119144 54.265058 30.117188 54.265625C30.117188 54.265625 30.115234 54.265625 30.115234 54.265625C27.484596 55.005 25.478335 57.246197 25.080078 60L19.919922 60C19.521665 57.246197 17.515404 55.005 14.884766 54.265625C14.884766 54.265625 14.882812 54.265625 14.882812 54.265625C14.695424 54.213012 14.505794 54.165881 14.3125 54.128906C14.205639 54.107875 14.097012 54.09405 13.988281 54.078125C13.884988 54.063367 13.782402 54.045319 13.677734 54.035156C13.455279 54.013122 13.22897 54 13 54C12.77103 54 12.544721 54.013122 12.322266 54.035156C12.217598 54.045319 12.115012 54.063367 12.011719 54.078125C11.902988 54.09405 11.794361 54.107875 11.6875 54.128906C11.49624 54.165491 11.308528 54.211772 11.123047 54.263672C11.121089 54.264237 11.119144 54.265058 11.117188 54.265625C11.117188 54.265625 11.115234 54.265625 11.115234 54.265625C8.4845962 55.005 6.4783347 57.246197 6.0800781 60L4.015625 60L4.109375 54L4.3828125 54C4.5716698 54 4.7568749 53.972835 4.9335938 53.921875C5.2069095 53.843048 5.4481575 53.692858 5.6640625 53.509766C5.7270533 53.456348 5.7973106 53.412667 5.8535156 53.351562C5.9785134 53.216046 6.0871092 53.063564 6.171875 52.894531L6.171875 52.892578L6.6171875 52.001953L6.6191406 52 z M 13 56C14.040125 56 15.003135 56.313947 15.800781 56.851562C17.130211 57.747669 18 59.266707 18 61C18 63.773269 15.773271 66 13 66C10.226729 66 8 63.773269 8 61C8 60.826671 8.0084045 60.654977 8.0253906 60.486328C8.1103072 59.642987 8.4035497 58.863924 8.8515625 58.199219C9.2100051 57.667447 9.6674467 57.210005 10.199219 56.851562C10.996865 56.313947 11.959875 56 13 56 z M 32 56C34.773271 56 37 58.226731 37 61C37 63.773269 34.773271 66 32 66C29.226729 66 27 63.773269 27 61C27 60.826646 27.008407 60.654996 27.025391 60.486328C27.280182 57.956589 29.400058 56 32 56 z M 64 56C65.040125 56 66.003135 56.313947 66.800781 56.851562C68.130211 57.747669 69 59.266707 69 61C69 63.773269 66.773271 66 64 66C61.226729 66 59 63.773269 59 61C59 60.826671 59.008405 60.654977 59.025391 60.486328C59.110307 59.642987 59.40355 58.863924 59.851562 58.199219C60.210005 57.667447 60.667447 57.210005 61.199219 56.851562C61.996865 56.313947 62.959875 56 64 56 z" fill="#181818" />
</svg>